<?xml version="1.0" standalone="no"?>
<!DOCTYPE svg PUBLIC "-//W3C//DTD SVG 20010904//EN"
 "http://www.w3.org/TR/2001/REC-SVG-20010904/DTD/svg10.dtd">
<svg version="1.0" xmlns="http://www.w3.org/2000/svg"
 width="5146.000000pt" height="1211.000000pt" viewBox="0 0 5146.000000 1211.000000"
 preserveAspectRatio="xMidYMid meet">

<g transform="translate(0.000000,1211.000000) scale(0.100000,-0.100000)"
fill="#000000" stroke="none">
<path d="M2365 11231 l-2250 -866 -3 -890 -2 -889 -35 -36 c-41 -42 -65 -96
-65 -147 0 -46 33 -116 68 -144 26 -20 27 -27 32 -127 l5 -107 93 -3 92 -3 0
106 0 106 31 27 c90 75 89 238 -2 303 l-29 20 0 865 0 864 760 -378 759 -377
-2 -413 c-1 -226 0 -412 2 -412 2 0 40 22 85 49 607 363 1299 626 1918 731
309 52 454 64 783 64 369 1 609 -22 945 -90 571 -114 1202 -358 1769 -684 68
-39 125 -70 126 -68 1 2 -1 176 -6 388 -4 212 -5 388 -1 392 4 3 378 193 832
421 787 397 823 416 795 427 -17 6 -1016 400 -2222 876 -1206 475 -2200 864
-2210 863 -10 -1 -1030 -391 -2268 -868z"/>
<path d="M4325 8999 c-692 -33 -1395 -238 -2001 -584 -149 -85 -424 -272 -557
-379 -121 -96 -326 -278 -406 -359 l-43 -45 203 -322 202 -321 97 103 c580
617 1402 1034 2253 1143 1392 177 2755 -429 3564 -1585 352 -503 572 -1085
650 -1720 27 -222 24 -660 -5 -880 -104 -771 -396 -1429 -892 -2004 -100 -116
-334 -346 -433 -425 -37 -30 -67 -59 -67 -64 0 -14 361 -637 369 -637 4 0 59
42 122 93 513 418 913 918 1203 1503 236 476 380 973 443 1526 24 214 24 722
0 935 -63 561 -208 1055 -449 1537 -100 200 -144 276 -284 486 -438 661 -1036
1188 -1749 1540 -466 230 -941 371 -1465 435 -120 14 -487 36 -560 33 -19 0
-107 -4 -195 -9z"/>
<path d="M4410 7504 c-196 -18 -592 -84 -744 -125 l-39 -11 6 -2860 c4 -1574
9 -2863 12 -2866 8 -8 372 -78 540 -104 199 -30 566 -33 745 -5 106 17 362 68
488 98 l52 12 0 1221 c0 672 -3 1380 -7 1574 l-6 352 -449 0 -448 0 0 -284 0
-283 160 -5 c88 -3 163 -7 166 -10 13 -14 26 -814 20 -1313 -6 -523 -17 -792
-33 -804 -12 -9 -630 3 -639 12 -20 20 -25 301 -30 1802 -6 1480 4 2657 23
2926 l6 89 257 0 c141 0 285 -3 318 -6 57 -6 62 -9 72 -38 28 -81 34 -282 21
-765 -8 -262 -11 -510 -7 -551 4 -41 9 -101 12 -132 l6 -58 279 0 279 0 0 398
c0 219 -3 669 -7 1000 l-6 601 -76 20 c-124 33 -307 71 -446 92 -125 19 -426
32 -525 23z"/>
<path d="M10420 7096 l0 -234 158 -4 c179 -4 221 -17 257 -78 20 -34 20 -51
23 -1100 2 -750 0 -1080 -8 -1116 -20 -94 -61 -112 -282 -121 l-148 -6 0 -234
0 -233 1775 0 1775 0 0 695 0 695 -274 0 -273 0 -7 -92 c-10 -120 -41 -303
-67 -392 -11 -39 -41 -113 -66 -163 -67 -139 -148 -204 -298 -238 -93 -22
-356 -35 -712 -35 l-313 0 0 532 0 531 128 -6 c204 -10 297 -49 347 -146 30
-61 54 -179 63 -312 l7 -104 208 -3 207 -2 0 770 0 770 -207 -2 -208 -3 -6
-110 c-8 -129 -20 -189 -54 -255 -56 -110 -158 -157 -362 -167 l-123 -6 0 466
0 467 343 0 c353 0 510 -9 612 -35 170 -44 291 -146 374 -316 44 -92 106 -282
127 -394 l6 -35 264 0 264 0 0 625 0 625 -1765 0 -1765 0 0 -234z"/>
<path d="M14330 7096 l0 -234 158 -4 c239 -7 263 -23 282 -190 13 -113 13
-1917 0 -2031 -12 -103 -28 -140 -71 -162 -36 -19 -163 -35 -281 -35 l-88 0 0
-235 0 -235 1585 0 1585 0 0 700 0 700 -259 0 -260 0 -5 -42 c-3 -24 -10 -95
-16 -158 -22 -227 -67 -380 -147 -502 -66 -101 -143 -154 -265 -183 -73 -18
-407 -38 -553 -33 l-100 3 0 1140 c0 1120 0 1141 20 1180 34 67 71 79 268 83
l167 4 0 234 0 234 -1010 0 -1010 0 0 -234z"/>
<path d="M17810 7096 l0 -234 158 -4 c163 -5 210 -15 243 -54 44 -52 44 -37
47 -1089 2 -639 -1 -1030 -7 -1084 -20 -157 -53 -178 -293 -188 l-148 -6 0
-234 0 -233 1000 0 1000 0 0 233 0 234 -148 6 c-234 10 -270 31 -292 172 -7
48 -10 392 -8 1085 3 1068 3 1052 47 1104 33 39 80 49 244 54 l157 4 0 234 0
234 -1000 0 -1000 0 0 -234z"/>
<path d="M20010 6695 l0 -635 245 0 245 0 0 48 c0 26 5 86 11 132 24 195 77
320 178 421 109 109 223 149 424 149 l107 0 -2 -1122 c-3 -1077 -4 -1125 -22
-1161 -10 -21 -32 -45 -48 -53 -40 -21 -167 -34 -330 -34 l-138 0 0 -235 0
-235 1105 0 1105 0 0 234 0 233 -202 6 c-215 6 -267 15 -303 52 -50 49 -49 26
-53 1208 l-3 1107 113 0 c199 0 324 -44 428 -149 105 -106 162 -253 182 -474
l12 -127 241 2 240 3 3 633 2 632 -1770 0 -1770 0 0 -635z"/>
<path d="M23730 7096 l0 -234 158 -4 c186 -5 224 -17 257 -83 20 -39 20 -63
23 -1095 2 -751 -1 -1070 -9 -1109 -21 -101 -60 -119 -281 -128 l-148 -6 0
-234 0 -233 1775 0 1775 0 0 695 0 695 -274 0 -273 0 -12 -122 c-24 -240 -64
-397 -138 -540 -51 -100 -98 -147 -187 -189 -107 -50 -210 -60 -693 -66 l-433
-6 0 533 0 533 128 -6 c264 -13 345 -71 387 -280 8 -42 18 -124 22 -182 l6
-105 209 0 208 0 0 770 0 770 -210 0 -210 0 0 -79 c0 -102 -23 -222 -56 -288
-55 -114 -153 -159 -361 -170 l-123 -6 0 466 0 467 343 0 c554 0 679 -22 831
-146 111 -90 188 -240 254 -496 l35 -138 264 0 263 0 0 625 0 625 -1765 0
-1765 0 0 -234z"/>
<path d="M3315 7234 c-77 -19 -256 -106 -365 -179 -225 -151 -587 -487 -770
-715 -316 -395 -508 -846 -595 -1400 -22 -140 -31 -555 -16 -715 49 -511 214
-981 486 -1390 200 -299 581 -675 903 -889 138 -91 362 -196 420 -196 12 0 14
127 11 934 -3 514 -7 937 -10 940 -3 3 -129 9 -281 12 l-275 7 -6 -144 c-4
-79 -7 -260 -7 -401 0 -142 -4 -258 -9 -258 -16 0 -145 144 -207 230 -251 349
-424 776 -428 1055 l-1 90 610 5 c336 3 611 7 613 8 5 5 1 431 -5 495 l-6 67
-608 0 -609 0 0 51 c0 74 44 280 89 416 71 216 179 443 284 597 41 61 193 240
244 289 l30 28 6 -397 c3 -218 7 -398 9 -399 2 -1 130 -5 286 -9 l282 -6 0
945 c0 520 -3 945 -7 944 -5 0 -35 -7 -68 -15z"/>
<path d="M5720 4501 l0 -2751 28 6 c168 40 413 176 632 350 119 94 399 377
504 509 254 320 483 750 521 983 l7 42 -269 0 c-235 0 -272 -2 -303 -18 -37
-18 -39 -21 -123 -202 -89 -192 -271 -460 -369 -545 l-43 -36 -6 223 c-4 123
-7 430 -8 684 l-1 461 621 5 c341 3 621 7 623 9 2 2 6 131 10 286 l7 282 -620
3 c-340 2 -623 7 -628 11 -12 12 -18 1367 -6 1367 21 0 182 -181 246 -277 38
-56 102 -171 144 -255 41 -84 91 -179 110 -210 l34 -58 291 0 290 0 -7 38
c-27 143 -165 454 -290 652 -238 375 -593 752 -925 979 -154 105 -311 180
-437 206 l-33 7 0 -2751z"/>
<path d="M5888 995 c-3 -4 -76 -30 -161 -58 l-156 -52 199 -315 c109 -173 206
-316 214 -318 14 -3 285 94 298 106 10 10 -355 636 -373 640 -8 1 -18 0 -21
-3z"/>
</g>
</svg>
